<svg xmlns="http://www.w3.org/2000/svg" viewBox="0 0 414.48 77.91"><defs><style>.cls-1{fill:#06855f;}.cls-2{fill:#96c2cc;}.cls-3{fill:#064a5f;}</style></defs><title>Ресурс 1</title><g id="Слой_2" data-name="Слой 2"><g id="katman_1" data-name="katman 1"><path class="cls-1" d="M59.38,8H33.84v70h-8.3V8H0V0H59.38Z"/><path class="cls-1" d="M89.79,20.85v8.29h-1a17.73,17.73,0,0,0-14.6,7.19A26,26,0,0,0,68.89,52.7V77.91H60.6V21.73h8.29v13.6q2.65-8.61,11.5-12.71a20.15,20.15,0,0,1,8.85-1.77Z"/><path class="cls-1" d="M122,70.39q11.17,0,16-9.29h9.07A26.69,26.69,0,0,1,138,73.27q-6.24,4.64-16.09,4.64-12.49,0-20.34-8.29-7.63-8.07-7.63-20.24t7.29-20.24q7.74-8.3,20.13-8.29t20.13,8.29q7.29,8,7.3,20.24V52.7H102.4a20.07,20.07,0,0,0,6.08,12.6A18.68,18.68,0,0,0,122,70.39Zm-.66-42a18.3,18.3,0,0,0-12.83,4.75,19.71,19.71,0,0,0-6,11.84h37.6a19.71,19.71,0,0,0-6-11.84A18.3,18.3,0,0,0,121.31,28.37Z"/><path class="cls-1" d="M167.2,21.73v8.63a27.87,27.87,0,0,1,7.3-6.75,17.83,17.83,0,0,1,9.84-2.76,26.25,26.25,0,0,1,9.51,1.55,19.25,19.25,0,0,1,7,4.64q6.85,6.75,6.85,17.81V77.91h-8.29V45.07q0-7.64-4.31-12.17a14.74,14.74,0,0,0-11.17-4.53A16.51,16.51,0,0,0,172.07,33a16.27,16.27,0,0,0-4.87,12.17V77.91h-8.29V21.73Z"/><path class="cls-1" d="M264.62,68.18q-6.63,9.73-19.79,9.73-11.94,0-19.46-8.29-7.31-8.19-7.3-20.24t7.3-20.24q7.51-8.3,20-8.29t19.24,9.84V0h8.3V77.91h-8.3Zm-18.68,2.21q9,0,14.15-6.19,5-5.87,5-14.82t-5-14.82q-5.19-6.2-14.15-6.19a18.37,18.37,0,0,0-14.38,6.19q-5.2,5.86-5.2,14.82t5.2,14.82A18.37,18.37,0,0,0,245.94,70.39Z"/><polygon class="cls-2" points="374 24.06 356.19 0.38 349.91 0.38 370.56 28.58 374 24.06"/><polygon class="cls-2" points="381.6 24.14 399.57 0.38 405.84 0.38 385.04 28.66 381.6 24.14"/><polygon class="cls-3" points="297.96 11.78 342.52 11.78 342.52 1.52 287.36 1.52 287.36 77.03 297.96 77.03 297.96 45.29 337.65 45.29 337.65 34.91 297.96 34.91 297.96 11.78"/><polygon class="cls-3" points="383.86 37.35 377.85 29.51 371.97 37.35 341.35 77.03 354.77 77.03 377.86 46.38 401.06 77.03 414.49 77.03 383.86 37.35"/></g></g></svg>