<svg id="katman_1" data-name="katman 1" xmlns="http://www.w3.org/2000/svg" viewBox="0 0 846.66 1058.32"><defs><style>.cls-1{fill:#fff;}</style></defs><title>tfx-money2</title><path class="cls-1" d="M424.26,290.3H221.2l-134.14,578h674.4l-134.14-578H424.26Zm-328,122h61l9.19-51.14h-16.5L125.73,241.21H723.1q-12.1,60-24.15,119.92h-16.5l9.18,51.14h60.93l54.11-222.2H40l56.22,222.2Zm521,60.74H578.8c-8.71,48.53-48.17,62.54-93.3,64.83L478.09,511c23-2.31,64.12-9.52,68.45-38H426.14c-32.55,88.11-165.61,75.82-176.48,0H231.35V457.17h18.31c5.38-39.55,41.45-54.34,77.16-57.83l6.1,27.39c-20.69,2.15-44.27,8-51,30.44H392.36c38.18-103.83,181.3-67,186,0h38.8Zm-335.69,0c9,41.18,86.87,49.19,105.06,0Zm265.06-15.83c-6.7-38.43-92.85-58.64-114.58,0Z"/></svg>