<svg id="katman_1" data-name="katman 1" xmlns="http://www.w3.org/2000/svg" viewBox="0 0 100 125"><defs><style>.cls-1{fill:#f4f4f4;}.cls-2{fill:#0e7c99;}</style></defs><title>tfx-secure</title><path class="cls-1" d="M91,21.62C73.72,10,51.87,5,50,5S26.28,10,9,21.62a1,1,0,0,0-.45.85C8.79,78.57,46.34,95,50,95S91.21,78.57,91.43,22.48A1,1,0,0,0,91,21.62ZM52.45,55.7V62H48V55.7a5,5,0,0,1-2.7-4.41,5,5,0,1,1,10,0A5.62,5.62,0,0,1,52.45,55.7Z"/><path class="cls-2" d="M67.73,38.33H32.27A1.78,1.78,0,0,0,30.5,40.1V66.78a1.78,1.78,0,0,0,1.77,1.77H67.73a1.78,1.78,0,0,0,1.77-1.77V40.1A1.78,1.78,0,0,0,67.73,38.33ZM52.81,56v7.31H47.66V56a5.82,5.82,0,0,1-3.16-5.15,5.81,5.81,0,1,1,11.63,0A6.56,6.56,0,0,1,52.81,56ZM40.11,38.31H35.89V36.88a14.06,14.06,0,0,1,28.11,0v1.44H59.77V36.88A9.75,9.75,0,0,0,50,27.09,9.89,9.89,0,0,0,40.11,37Z"/></svg>