<svg id="katman_1" data-name="katman 1" xmlns="http://www.w3.org/2000/svg" viewBox="0 0 65 81.25"><defs><style>.cls-1{fill:#064a5f;}</style></defs><title>tfx-home</title><path class="cls-1" d="M32.5,11.13A29.5,29.5,0,1,0,62,40.63,29.5,29.5,0,0,0,32.5,11.13Zm2.93,42.4H29.57V44.88h5.85Zm12-16.67a.72.72,0,0,1-1,.27l-4.16-2.35v18a.72.72,0,0,1-.72.72H36.87V44.15a.72.72,0,0,0-.72-.72h-7.3a.72.72,0,0,0-.72.72v9.37H23.48a.72.72,0,0,1-.72-.72v-18L18.6,37.13a.72.72,0,1,1-.71-1.26l14.26-8.06h0l.07,0,.07,0h.34l.08,0,.06,0,.08,0h0l14.25,8.06A.72.72,0,0,1,47.38,36.86Z"/></svg>