<svg id="katman_1" data-name="katman 1" xmlns="http://www.w3.org/2000/svg" viewBox="0 0 64 80"><defs><style>.cls-1{fill:#f7f7f7;}</style></defs><title>tfx-money</title><path class="cls-1" d="M44.21,12.67A19.33,19.33,0,1,0,63.54,32,19.36,19.36,0,0,0,44.21,12.67Zm-3.5,27.7a9,9,0,0,1-1.3-.34,1.25,1.25,0,0,1-.84-1.18V37.2a.64.64,0,0,1,1-.55,7,7,0,0,0,1.22.58,7.06,7.06,0,0,0,2.39.42h.16a5.08,5.08,0,0,0,1.08-.12,3.09,3.09,0,0,0,.72-.26l.17-.1a1.54,1.54,0,0,0,.53-.53A1.33,1.33,0,0,0,46,36a1.44,1.44,0,0,0-.28-.87,2.79,2.79,0,0,0-.59-.58l-.17-.12a8,8,0,0,0-1.14-.63l-.48-.22-.95-.4a7.29,7.29,0,0,1-2.91-2,4.33,4.33,0,0,1-1-2.83A4.51,4.51,0,0,1,39,26.11a4.44,4.44,0,0,1,1.42-1.54,6.4,6.4,0,0,1,2.08-.89q.39-.09.79-.15V22.28h1.79V23.4a15,15,0,0,1,2.23.16q.47.07.9.18a1.25,1.25,0,0,1,.94,1.21v1.46a.65.65,0,0,1-.91.59,7.14,7.14,0,0,0-1-.36,7.93,7.93,0,0,0-1-.22,7.4,7.4,0,0,0-1-.07h-.14a4.87,4.87,0,0,0-1,.12,3,3,0,0,0-.77.28l-.11.06a1.7,1.7,0,0,0-.56.53,1.25,1.25,0,0,0-.2.69,1.32,1.32,0,0,0,.22.75,2.55,2.55,0,0,0,.63.63h0a6.71,6.71,0,0,0,1,.57l.83.38.48.2a14.47,14.47,0,0,1,1.79.89,6.4,6.4,0,0,1,1.36,1.06,4.17,4.17,0,0,1,.87,1.35A5.39,5.39,0,0,1,49.39,38,4.26,4.26,0,0,1,48,39.51a6.2,6.2,0,0,1-2.1.84l-.74.13v1.24H43.31V40.61A14.55,14.55,0,0,1,40.71,40.37ZM44,48.17h-.64V46H44a14,14,0,0,0,0-28h-.64V15.83H44a16.17,16.17,0,1,1,0,32.35Z"/><path class="cls-1" d="M22.76,16.95h4.13a23.12,23.12,0,0,1,4.95-4.28H22.76a2.14,2.14,0,1,0,0,4.28Z"/><path class="cls-1" d="M23.91,21.26H11.82a2.14,2.14,0,1,0,0,4.28H22.17A22.75,22.75,0,0,1,23.91,21.26Z"/><path class="cls-1" d="M21.24,32c0-.72,0-1.43.1-2.14H2.6a2.14,2.14,0,1,0,0,4.28H21.34C21.28,33.44,21.24,32.72,21.24,32Z"/><path class="cls-1" d="M22.17,38.46H11.63a2.14,2.14,0,1,0,0,4.28H23.91A22.8,22.8,0,0,1,22.17,38.46Z"/><path class="cls-1" d="M26.88,47.05H22.66a2.14,2.14,0,0,0,0,4.28h9.17A23.13,23.13,0,0,1,26.88,47.05Z"/></svg>